<svg xmlns="http://www.w3.org/2000/svg" viewBox="0 0 600 420" width="100%" height="100%">
  <defs>
    <linearGradient id="bg" x1="0%" y1="0%" x2="100%" y2="100%">
      <stop offset="0%" stop-color="#1E1B4B"/><stop offset="100%" stop-color="#0F0E26"/>
    </linearGradient>
    <linearGradient id="accent" x1="0%" y1="0%" x2="100%" y2="0%">
      <stop offset="0%" stop-color="#FFB703" />
      <stop offset="100%" stop-color="#FB8500" />
    </linearGradient>
    <filter id="shadow" x="-20%" y="-20%" width="140%" height="140%">
      <feDropShadow dx="0" dy="6" stdDeviation="6" flood-color="#000" flood-opacity="0.35"/>
    </filter>
    <pattern id="grid" width="20" height="20" patternUnits="userSpaceOnUse">
      <path d="M 20 0 L 0 0 0 20" fill="none" stroke="rgba(255,255,255,0.05)" stroke-width="1"/>
    </pattern>
  </defs>

  <!-- Background -->
  <rect width="600" height="420" fill="url(#bg)"/>
  <rect width="600" height="420" fill="url(#grid)"/>

  <!-- CMYK Top Indicator Stripe -->
  <g opacity="0.8">
    <rect x="0" y="0" width="150" height="6" fill="#00AEEF"/>
    <rect x="150" y="0" width="150" height="6" fill="#EC008C"/>
    <rect x="300" y="0" width="150" height="6" fill="#FFF200"/>
    <rect x="450" y="0" width="150" height="6" fill="#231F20"/>
  </g>

  <!-- Watermark / Brand Badge -->
  <g transform="translate(450, 16)">
    <rect width="134" height="24" rx="12" fill="rgba(0,0,0,0.45)" stroke="#FFB703" stroke-width="1"/>
    <circle cx="14" cy="12" r="4" fill="#FFB703"/>
    <text x="24" y="16" font-family="'Mukta', sans-serif" font-size="11" font-weight="700" fill="#FFFFFF">मोरया ग्राफिक्स</text>
  </g>

  <!-- Central Graphic Content -->
  <g transform="translate(300, 185)" filter="url(#shadow)">
    
          <rect x="-110" y="-70" width="220" height="130" rx="8" fill="#18181B" stroke="#FFB703" stroke-width="3"/>
          <g transform="translate(0, -25)">
            <polygon points="0,-22 6,-6 22,-6 10,4 14,20 0,10 -14,20 -10,4 -22,-6 -6,-6" fill="#FFD166"/>
          </g>
          <text x="0" y="10" font-family="'Mukta', sans-serif" font-size="22" font-weight="900" fill="#FFF" text-anchor="middle">स्टार फ्लेक्स (हेव्ही ड्युटी)</text>
          <text x="0" y="30" font-family="'Poppins', sans-serif" font-size="11" font-weight="700" fill="#F59E0B" text-anchor="middle">GLOSSY / MATTE • 340+ GSM</text>
          <circle cx="-95" cy="-55" r="5" fill="#FFB703"/>
          <circle cx="95" cy="-55" r="5" fill="#FFB703"/>
          <circle cx="-95" cy="45" r="5" fill="#FFB703"/>
          <circle cx="95" cy="45" r="5" fill="#FFB703"/>
        
  </g>

  <!-- Bottom Labels Plate -->
  <g transform="translate(0, 340)">
    <rect width="600" height="80" fill="rgba(15, 5, 8, 0.75)"/>
    <rect width="600" height="3" fill="url(#accent)"/>
    <text x="24" y="36" font-family="'Mukta', 'Noto Sans Devanagari', sans-serif" font-size="24" font-weight="800" fill="#FFFFFF">स्टार फ्लेक्स प्रिंट</text>
    <text x="24" y="60" font-family="'Poppins', sans-serif" font-size="13" font-weight="600" fill="#FFD166" letter-spacing="1">STAR FLEX PRINT</text>
    
    <!-- Quality Seal -->
    <g transform="translate(490, 18)">
      <circle cx="20" cy="20" r="18" fill="url(#accent)"/>
      <text x="20" y="24" font-family="'Poppins', sans-serif" font-size="9" font-weight="800" fill="#111" text-anchor="middle">HD PRINT</text>
    </g>
  </g>
</svg>