<svg xmlns="http://www.w3.org/2000/svg" viewBox="0 0 24 24" width="24" height="24" fill="currentColor">
  <path d="M12 1C6.48 1 2 5.48 2 11C2 14.19 3.5 17.03 5.86 18.84C6.26 19.14 6.5 19.61 6.5 20.12V22C6.5 22.55 6.95 23 7.5 23H9.5C10.05 23 10.5 22.55 10.5 22V20C10.5 19.45 10.05 19 9.5 19H7.9C6.11 17.56 5 15.42 5 13C5 9.13 8.13 6 12 6C15.87 6 19 9.13 19 13C19 15.42 17.89 17.56 16.1 19H14.5C13.95 19 13.5 19.45 13.5 20V22C13.5 22.55 13.95 23 14.5 23H16.5C17.05 23 17.5 22.55 17.5 22V20.12C17.5 19.61 17.74 19.14 18.14 18.84C20.5 17.03 22 14.19 22 11C22 5.48 17.52 1 12 1Z"/>
</svg>